<svg id="Capa_1" enable-background="new 0 0 512 512" height="512" viewBox="0 0 512 512" width="512" xmlns="http://www.w3.org/2000/svg"><g><g><g><path d="m504.5 256v-144.29c0-8.855-7.178-16.032-16.032-16.032h-464.936c-8.854 0-16.032 7.178-16.032 16.032l91.684 168.339z" fill="#f2f2f6"/><path d="m7.5 256v144.29c0 8.854 7.178 16.032 16.032 16.032h464.935c8.854 0 16.032-7.178 16.032-16.032v-144.29z" fill="#e5646e"/><path d="m31.548 352.194v-96.194h-24.048v144.29c0 8.854 7.179 16.032 16.032 16.032h464.935c8.854 0 16.032-7.178 16.032-16.032v-8.016h-432.87c-22.1 0-40.081-17.98-40.081-40.08z" fill="#db4655"/><path d="m13.329 99.438c-3.532 2.941-5.829 7.316-5.829 12.272v288.58c0 4.956 2.297 9.331 5.829 12.272l242.671-156.562z" fill="#5055a0"/><path d="m52.254 387.45-2.88-1.927c-11.162-7.471-17.826-19.93-17.826-33.329v-241.001l-18.219-11.755c-3.532 2.941-5.829 7.316-5.829 12.272v288.58c0 4.956 2.297 9.331 5.829 12.272z" fill="#3f3f8f"/></g></g><path d="m488.468 88.177h-464.936c-12.975 0-23.532 10.557-23.532 23.532v288.581c0 12.976 10.557 23.532 23.532 23.532h464.936c12.976 0 23.532-10.557 23.532-23.532v-288.581c0-12.975-10.557-23.532-23.532-23.532zm-473.197 314.207c-.17-.671-.271-1.37-.271-2.093v-288.582c0-.723.1-1.422.271-2.093l226.895 146.384zm473.197 6.439h-455.509l225.25-145.323h190.175c4.142 0 7.5-3.358 7.5-7.5s-3.358-7.5-7.5-7.5h-190.175l-225.25-145.323h455.509c4.705 0 8.532 3.828 8.532 8.532v136.791h-16.546c-4.142 0-7.5 3.358-7.5 7.5s3.358 7.5 7.5 7.5h16.546v136.791c0 4.704-3.828 8.532-8.532 8.532z"/></g></svg>